<svg width="40" height="40" viewBox="0 0 40 40" fill="none" xmlns="http://www.w3.org/2000/svg">
<path d="M26.6672 33.332V6.66536C26.6672 5.78131 26.316 4.93346 25.6908 4.30834C25.0657 3.68322 24.2178 3.33203 23.3336 3.33203H16.6664C15.7823 3.33203 14.9344 3.68322 14.3092 4.30834C13.684 4.93346 13.3328 5.78131 13.3328 6.66536V33.332M6.66563 9.9987H33.3344C35.1755 9.9987 36.668 11.4911 36.668 13.332V29.9987C36.668 31.8396 35.1755 33.332 33.3344 33.332H6.66563C4.82453 33.332 3.33203 31.8396 3.33203 29.9987V13.332C3.33203 11.4911 4.82453 9.9987 6.66563 9.9987Z" stroke="#4F46E5" stroke-width="2" stroke-linecap="round"/>
</svg>
